<svg xmlns="http://www.w3.org/2000/svg" viewBox="0 0 240 240" width="240" height="240">
  <defs>
    <linearGradient id="sheen" x1="0" y1="0" x2="0" y2="1">
      <stop offset="0%"  stop-color="white" stop-opacity="0.22"/>
      <stop offset="55%" stop-color="white" stop-opacity="0"/>
    </linearGradient>
    <clipPath id="ca"><rect x="20"  y="20"  width="94" height="94" rx="20"/></clipPath>
    <clipPath id="cb"><rect x="126" y="20"  width="94" height="94" rx="20"/></clipPath>
    <clipPath id="cc"><rect x="20"  y="126" width="94" height="94" rx="20"/></clipPath>
    <clipPath id="cd"><rect x="126" y="126" width="94" height="94" rx="20"/></clipPath>
  </defs>

  <!-- background -->
  <rect width="240" height="240" rx="46" fill="#1B1D22"/>

  <!-- Tile A (blue) -->
  <rect x="20"  y="20"  width="94" height="94" rx="20" fill="#1F77B4"/>
  <rect x="20"  y="20"  width="94" height="94" rx="20" fill="url(#sheen)" clip-path="url(#ca)"/>

  <!-- Tile B (green) -->
  <rect x="126" y="20"  width="94" height="94" rx="20" fill="#65A637"/>
  <rect x="126" y="20"  width="94" height="94" rx="20" fill="url(#sheen)" clip-path="url(#cb)"/>

  <!-- Tile C (orange) -->
  <rect x="20"  y="126" width="94" height="94" rx="20" fill="#ED8B00"/>
  <rect x="20"  y="126" width="94" height="94" rx="20" fill="url(#sheen)" clip-path="url(#cc)"/>

  <!-- Tile D (purple, selected - checkmark only, no ring) -->
  <rect x="126" y="126" width="94" height="94" rx="20" fill="#AF6DC7"/>
  <rect x="126" y="126" width="94" height="94" rx="20" fill="url(#sheen)" clip-path="url(#cd)"/>
  <polyline points="149,174 164,192 205,155"
            fill="none" stroke="white" stroke-width="10"
            stroke-linecap="round" stroke-linejoin="round"/>
</svg>
